<?xml version="1.0" standalone="no"?><!DOCTYPE svg PUBLIC "-//W3C//DTD SVG 1.1//EN" "http://www.w3.org/Graphics/SVG/1.1/DTD/svg11.dtd"><svg t="1589614786955" class="icon" viewBox="0 0 1024 1024" version="1.1" xmlns="http://www.w3.org/2000/svg" p-id="8547" width="128" height="128" xmlns:xlink="http://www.w3.org/1999/xlink"><defs><style type="text/css"></style></defs><path d="M622.08 51.2L329.728 343.552h-0.512l-153.6-153.6C262.656 98.304 385.536 40.96 522.24 40.96c34.304-0.512 67.584 3.072 99.84 10.24z" fill="#FCFCB1" p-id="8548"></path><path d="M129.536 246.272l148.48 148.48v0.512l-222.72 222.72c-6.656-32.256-10.24-65.536-10.24-99.84-0.512-100.864 30.72-194.56 84.48-271.872" fill="#AAFF92" p-id="8549"></path><path d="M355.328 420.864l-26.112 25.6 0.512 0.512 51.712-51.712-26.112 25.6z m-225.792-174.08l148.48 148.48 51.712-51.712h-0.512l-154.112-153.6c-16.384 17.408-31.744 36.352-45.568 56.832m225.792 174.08l-25.6 25.6h-0.512l0.512 0.512 51.712-51.712-26.112 25.6z m0 0l-25.6 25.6h-0.512l0.512 0.512 51.712-51.712-26.112 25.6z m0 0l-25.6 25.6h-0.512l0.512 0.512 51.712-51.712-26.112 25.6z m-77.312-25.6l-223.232 223.232c5.632 27.136 13.824 53.76 24.064 78.848l249.856-250.368S321.024 439.296 312.32 430.08l-34.304-34.816z m77.312 25.6l-25.6 25.6h-0.512l0.512 0.512 51.712-51.712-26.112 25.6z m0 0l-25.6 25.6h-0.512l0.512 0.512 51.712-51.712-26.112 25.6z m0 0l-25.6 25.6h-0.512l0.512 0.512 51.712-51.712-26.112 25.6z m-26.112 25.6l26.112-25.6-26.112 25.6z m0 0l26.112-25.6-26.112 25.6z m0 0l26.112-25.6-26.112 25.6z m371.2-371.712c-25.088-10.24-50.688-17.92-77.824-23.552L330.24 343.04l51.2 51.2 245.76-245.76 157.184 157.696 59.904 59.904h0.512l69.632-32.768h0.512l0.512-0.512-2.048-2.048-92.672-92.16-142.336-140.8 1.024-1.024 22.016-22.528M329.728 446.464l25.6-25.6-25.6 25.6z m-0.512 0l26.112-25.6-26.112 25.6z m0 0l26.112-25.6-26.112 25.6z" fill="#FFFFFF" p-id="8550"></path><path d="M701.44 75.264c111.104 45.056 201.216 130.048 252.416 238.08-3.072 1.536-6.656 2.56-9.728 4.096l-30.72 13.824s-0.512 0-0.512 0.512l-92.16-92.16L679.424 97.28l-1.024-0.512 22.016-22.016" fill="#AAFF92" p-id="8551"></path><path d="M329.728 446.464L278.016 394.752 329.728 343.04l51.712 51.712-51.712 51.712z m296.96-297.984l-40.448-40.448 51.2-51.712 40.448 40.448-51.2 51.712z" fill="#FFFFFF" p-id="8552"></path><path d="M844.288 366.08s-0.512 0 0 0c-36.864 19.456-74.24 40.448-111.104 63.488-15.36 9.728-30.72 19.456-46.08 29.696-9.728 6.144-18.944 12.8-28.672 19.456-8.192 5.632-15.872 11.264-24.064 16.896-2.56 2.048-5.632 4.096-8.192 5.632l-10.752 7.68c-4.096 3.072-7.68 5.632-11.776 8.704-8.704 6.144-16.896 12.8-25.088 19.456-17.92 14.336-35.84 28.672-53.248 43.008-1.536-0.512-2.56-1.024-4.096-1.024-6.656-2.048-13.824-4.096-20.992-5.632-2.56-0.512-5.632-1.536-8.704-2.048-0.512 0-1.536-0.512-2.048-0.512-35.328-7.68-71.68-11.776-100.864-8.192-2.048 0-3.584 0.512-5.12 0.512-2.048 0-3.584 0.512-5.12 1.024-1.536 0-3.072 0.512-4.608 1.024-1.536 0.512-2.56 0.512-4.096 1.024-1.024 0.512-2.048 0.512-3.072 1.024-1.024 0-2.048 0.512-3.072 1.024h-0.512c-2.56 1.024-4.608 1.536-6.656 2.56l-3.072 1.536c-0.512 0.512-1.024 0.512-1.536 1.024-0.512 0.512-1.536 1.024-2.048 1.536-0.512 0.512-1.536 1.024-2.048 1.536-1.024 0.512-1.536 1.024-2.56 2.048-1.024 0.512-1.536 1.536-2.56 2.048-1.024 1.024-2.048 2.048-2.56 3.072-13.824 15.872-48.64 43.008-91.648 74.24-7.168 5.12-14.848 10.752-22.528 15.872-7.68 5.12-15.36 10.752-23.04 16.384s-15.872 10.752-23.552 16.384h-0.512c-5.12 3.584-10.752 7.168-16.384 10.752-2.56 2.048-5.632 3.584-8.192 5.632-5.12 3.584-10.752 7.168-16.384 10.752-2.56 2.048-5.12 3.584-8.192 5.632-4.096 2.56-7.68 5.12-11.776 7.68-4.096 2.56-7.68 5.12-11.264 7.68-10.24-18.432-19.968-37.376-27.648-57.344l249.856-250.368 0.512 0.512 51.712-51.712v-0.512l86.528-86.016 159.744-159.232L784.384 307.2l59.904 58.88z" fill="#FCFCB1" p-id="8553"></path><path d="M848.896 866.816c-18.432 17.408-38.912 33.28-59.904 48.128 7.168-14.848 16.896-28.672 29.184-40.448 11.776-11.776 20.992-13.824 28.16-9.216l0.512 0.512c0.512 0 1.024 0.512 1.024 1.024 0.512-0.512 0.512-0.512 1.024 0" fill="#FCFCB1" p-id="8554"></path><path d="M716.8 1000.448c0-1.024 0.512-2.048 1.024-3.072-0.512 1.024-0.512 2.048-1.024 3.072zM848.896 866.816l-0.512-0.512c-0.512-0.512-1.024-0.512-1.024-1.024l-0.512-0.512c-7.168-5.12-16.384-3.584-28.672 8.704-12.8 12.8-22.528 27.136-30.208 41.984-19.456 13.312-39.936 24.576-61.44 34.816 0.512-3.584 0.512-7.68 0.512-11.264v-7.68-3.072c0-2.048 0-4.608-0.512-6.656 0-2.048-0.512-4.096-0.512-6.656-0.512-2.56-1.024-5.632-1.536-8.704 0-1.536-0.512-3.072-1.024-4.608-0.512-3.072-1.536-6.656-2.048-10.24-0.512-1.536-1.024-3.584-1.536-5.12-1.536-5.12-2.56-9.728-4.608-15.36-0.512-1.536-1.024-2.56-1.536-4.096-0.512-1.536-1.024-2.56-1.536-4.096-4.096-12.288-9.216-25.088-15.872-37.888-1.024-2.56-2.56-5.12-4.096-7.68-1.536-2.56-2.56-5.12-4.096-7.68-1.536-3.072-3.584-5.632-5.12-8.704-1.024-1.536-1.536-2.56-2.56-4.096-1.536-2.56-3.584-5.12-5.12-7.68-27.136-38.912-67.584-71.68-124.928-76.288-4.608-0.512-9.728-0.512-14.848-0.512-138.752 1.024-94.208 76.8-210.944 108.544-16.896 4.608-34.816 11.264-52.736 19.456-21.504 9.728-43.52 22.016-65.536 35.84-39.936-34.816-73.216-76.288-99.84-122.368 3.584-2.56 7.68-5.12 11.264-7.68 4.096-2.56 7.68-5.12 11.776-7.68 2.56-2.048 5.12-3.584 8.192-5.632 5.12-3.584 10.752-7.168 16.384-10.752 2.56-2.048 5.12-3.584 8.192-5.632 5.632-3.584 10.752-7.168 16.384-10.752h0.512c7.68-5.632 15.872-10.752 23.552-16.384 7.68-5.632 15.872-10.752 23.04-16.384 7.68-5.632 15.36-10.752 22.528-15.872 43.008-31.232 78.336-58.368 91.648-74.24 1.024-1.024 1.536-2.048 2.56-3.072 1.024-0.512 1.536-1.536 2.56-2.048 1.024-0.512 1.536-1.536 2.56-2.048 0.512-0.512 1.536-1.024 2.048-1.536 0.512-0.512 1.536-1.024 2.048-1.536 0.512-0.512 1.024-0.512 1.536-1.024l3.072-1.536c2.048-1.024 4.608-2.048 6.656-2.56h0.512c1.024-0.512 2.048-0.512 3.072-1.024 1.024-0.512 2.048-0.512 3.072-1.024 1.536-0.512 2.56-0.512 4.096-1.024 1.536-0.512 3.072-0.512 4.608-1.024 1.536-0.512 3.584-0.512 5.12-1.024 1.536-0.512 3.584-0.512 5.12-0.512 1.536 0 3.584-0.512 5.632-0.512 1.536 0 3.072 0 4.608-0.512h1.024c3.584 0 7.168-0.512 10.752-0.512H422.912c2.048 0 4.608 0 6.656 0.512 3.072 0 6.656 0.512 9.728 0.512 6.656 0.512 13.312 1.536 19.968 2.56 6.656 1.024 13.312 2.048 19.968 3.584 3.072 0.512 6.656 1.536 10.24 2.048 0.512 0 1.024 0 2.048 0.512 3.072 0.512 5.632 1.536 8.704 2.048 7.168 1.536 14.336 3.584 20.992 5.632 1.536 0.512 2.56 1.024 4.096 1.024 50.688 15.36 92.672 37.376 97.792 55.296 1.024 3.584 3.072 7.168 6.656 10.752 37.376 42.496 210.432 98.816 238.08 120.32 10.24 8.192 22.528 20.992 34.304 40.96-15.872 23.04-33.792 42.496-53.248 60.928z" fill="#8DC6FF" p-id="8555"></path><path d="M716.8 1000.448c0.512-1.024 0.512-2.048 1.024-3.072-0.512 1.024-1.024 2.048-1.024 3.072z m9.728-72.192c0-2.048 0-4.096-0.512-6.656 0-2.048-0.512-4.608-0.512-7.168-0.512-2.56-1.024-5.632-1.536-8.704 0-1.536-0.512-3.072-1.024-4.608-0.512-3.072-1.536-6.656-2.048-10.24-0.512-1.536-1.024-3.584-1.536-5.12-1.536-5.12-2.56-9.728-4.608-15.36-0.512-1.536-1.024-2.56-1.536-4.096-0.512-1.536-1.024-2.56-1.536-4.096-4.096-12.288-9.216-25.088-15.872-37.888-1.024-2.56-2.56-5.12-4.096-7.68-1.536-2.56-2.56-5.12-4.096-7.68-1.536-3.072-3.584-5.632-5.12-8.704-1.024-1.536-1.536-2.56-2.56-4.096-27.648-41.984-69.12-78.848-129.536-83.968-87.04 81.408-160.768 164.352-217.6 244.736 57.856 25.088 121.856 38.912 189.44 38.912 72.704 0 141.824-16.384 203.264-45.568 0.512-3.584 0.512-7.68 1.024-11.264v-7.68-3.072z m-493.568-30.208c12.288-18.944 26.112-37.888 40.448-56.832-0.512 0.512-1.536 0.512-2.048 1.024-20.992 9.728-42.496 21.504-64 34.816 8.192 7.168 16.384 13.824 25.088 20.48" fill="#FCFCB1" p-id="8556"></path><path d="M989.696 418.304c6.656 32.256 10.24 65.536 10.24 99.84 0 108.544-36.352 208.896-97.792 289.28-11.776-20.48-24.064-33.28-34.304-41.472-27.136-21.504-199.168-77.312-237.568-119.808 22.528-17.92 45.568-35.84 69.12-53.248 75.776-55.808 152.576-103.936 228.352-143.872 3.072-1.536 5.632-3.072 8.704-4.608 17.92-8.704 35.328-17.408 53.248-26.112z" fill="#AAFF92" p-id="8557"></path><path d="M944.128 316.928l-30.72 13.824s-0.512 0-0.512 0.512l2.048 2.048 71.68 71.68c-7.68-31.744-18.944-62.464-32.768-91.648-3.072 1.024-6.656 2.56-9.728 3.584zM232.96 898.048c30.72 23.552 64 43.008 99.328 58.368 56.32-80.896 130.048-163.84 218.624-243.2 25.088-22.528 51.2-45.056 78.336-67.072 22.528-18.432 45.568-35.84 69.12-53.248 75.776-55.808 153.088-103.936 228.352-143.872l-83.968-83.968c-35.84 19.456-72.704 40.96-109.568 64-11.776 7.168-23.04 14.848-34.816 22.528-4.096 2.56-7.68 5.12-11.776 7.68-3.584 2.048-6.656 4.608-10.24 6.656-3.072 2.048-5.632 4.096-8.704 6.144-7.168 5.12-14.336 10.24-21.504 14.848-4.096 2.56-8.192 5.632-11.776 8.704-2.56 2.048-5.632 4.096-8.192 5.632l-10.752 7.68c-4.096 3.072-7.68 5.632-11.776 8.704-8.704 6.144-16.896 12.8-25.088 18.944-18.432 14.336-35.84 28.672-53.248 43.008-101.376 84.48-186.368 173.056-252.928 260.608-0.512 0.512-0.512 1.024-1.024 1.536-13.824 18.432-27.136 36.864-39.424 55.296l1.024 1.024z" fill="#FFC82C" p-id="8558"></path><path d="M989.696 418.304c-17.408 8.192-35.328 16.896-53.248 26.112-3.072 1.536-5.632 3.072-8.704 4.608L844.8 366.08l-1.024-1.024c23.04-11.776 46.08-23.04 68.608-33.792l2.048 2.048 72.192 72.192c1.024 4.096 2.048 8.704 3.072 12.8z" fill="#FFC82C" p-id="8559"></path><path d="M479.232 357.376c-3.072-7.68-5.632-15.872-7.68-23.552 1.536 8.192 4.096 15.872 7.68 23.552z m147.456 98.816c-54.784 0-102.912-27.136-131.072-69.12l22.528 40.448 77.312 140.288c13.312 24.064 48.64 24.064 61.952 0l76.8-140.288 19.456-35.84c-28.672 38.912-74.752 64.512-126.976 64.512z" fill="#FF4031" p-id="8560"></path><path d="M626.688 136.192c-88.064 0-159.744 71.68-159.744 159.744 0 12.8 2.048 25.6 4.096 36.864 2.048 7.68 4.096 16.384 7.68 23.552 0.512 1.024 1.024 3.072 2.56 4.096l13.312 25.088c28.672 41.984 77.312 69.12 131.072 69.12 52.224 0 98.304-25.088 127.488-64 19.968-26.624 31.744-59.392 31.744-95.232 1.024-87.552-70.144-159.232-158.208-159.232z m-0.512 242.176c-39.936 0-72.192-32.768-72.192-72.704 0-12.288 3.072-24.064 8.704-34.816 7.168-18.944 23.04-33.792 42.496-39.936 6.656-2.56 13.824-3.584 21.504-3.584 7.168 0 14.336 1.024 21.504 3.584 19.456 6.144 34.816 21.504 42.496 39.424 5.632 10.24 9.216 22.528 9.216 34.816-1.024 40.448-33.792 73.216-73.728 73.216z" fill="#FF4031" p-id="8561"></path><path d="M694.784 296.448c0 37.888-31.232 68.608-68.608 68.608-37.888 0-68.608-31.232-68.608-68.608 0-8.704 2.048-16.896 4.608-25.088-5.632 10.24-8.704 22.016-8.704 34.816 0 39.936 32.768 72.192 72.192 72.192 39.936 0 72.192-32.768 72.192-72.192 0-12.8-3.072-24.064-9.216-34.816 4.096 7.168 6.144 15.872 6.144 25.088z" fill="#E43D2A" p-id="8562"></path></svg>